<?xml version="1.0" encoding="UTF-8" standalone="no"?>
<!DOCTYPE svg PUBLIC "-//W3C//DTD SVG 1.1//EN" "http://www.w3.org/Graphics/SVG/1.1/DTD/svg11.dtd">
<svg width="100%" height="100%" viewBox="0 0 2481 3508" version="1.1" xmlns="http://www.w3.org/2000/svg" xmlns:xlink="http://www.w3.org/1999/xlink" xml:space="preserve" xmlns:serif="http://www.serif.com/" style="fill-rule:evenodd;clip-rule:evenodd;stroke-linejoin:round;stroke-miterlimit:2;">
    <g transform="matrix(2.038623,0,0,2.038623,332.225045,608.225045)">
        <path d="M537.493,173.47C570.156,204.713 554.42,211.223 552.982,237.543C551.012,273.593 550.17,273.482 553.231,309.486C553.874,317.056 551.32,334.17 554.298,345.527C556.497,353.916 552.804,387.014 563.41,419.525C564.441,422.685 566.316,428.433 570.309,460.505C570.556,462.492 569.745,462.517 571.344,485.51C577.279,570.814 567.264,662.669 566.162,667.445C563.625,675.582 564.434,695.901 561.493,693.513C560.266,692.517 550.832,683.174 532.502,683.624C520.124,683.927 506.428,693.961 504.466,695.399C504.424,695.356 502.787,696.655 502.415,692.512C500.715,673.626 499.011,674.11 498.886,672.488C497.294,651.744 495.036,652.147 493.943,631.487C490.71,570.407 484.364,568.133 500.293,536.401C531.297,474.64 464.569,473.06 456.447,475.335C396.783,492.05 435.406,537.408 440.511,555.498C446.779,577.711 433.038,687.867 427.669,695.066C405.455,678.929 390.056,679.94 370.514,693.54C365.313,674.883 369.334,674.206 364.284,655.538C363.54,652.789 354.275,544.072 361.749,475.529C362.053,472.739 361.244,472.741 363.931,440.519C364.096,438.551 367.699,419.059 370.461,410.486C378.489,385.57 376.406,353.775 378.736,339.602C379.053,337.674 382.058,267.238 380.232,245.526C377.844,217.146 365.658,200.005 390.928,176.963C402.119,166.759 398.147,188.974 434.462,200.638C463.501,209.966 497.757,202.723 508.548,196.61C532.42,183.085 529.964,177.584 537.493,173.47Z" style="fill:rgb(241,242,245);"/>
        <path d="M103.218,150.472C105.392,150.806 105.222,150.85 105.392,150.806C123.827,146.007 119.672,217.345 117.726,233.153C117.94,233.415 118.154,233.677 118.367,233.939C134.944,226.501 150.202,218.554 183.229,203.089C187.62,201.032 186.59,174.265 191.972,164.746C201.9,147.184 207.835,186.667 208.24,187.718C209.102,192.39 208.297,192.552 210.721,196.504C209.869,216.86 201.096,267.012 200.679,273.511C198.545,306.787 185.456,331.818 184.976,364.521C184.261,413.138 228.576,439.157 205.964,501.64C193.326,536.563 176.325,531.133 176.323,573.502C176.318,695.286 165.729,696.025 177.693,744.438C193.924,810.117 188.405,810.821 186.948,832.518C184.684,866.238 179.534,865.477 172.539,932.506C168.04,975.619 173.688,983.957 161.584,981.713C155.831,982.415 132.827,983.238 123.561,980.404C122.87,980.669 118.881,982.194 114.338,979.66C113.621,979.261 113.405,979.14 115.365,969.457C123.48,929.36 118.616,897.986 118.37,892.513C117.01,862.29 112.446,849.586 110.157,793.514C108.602,755.387 98.207,752.916 92.649,730.469C91.313,725.072 83.865,677.051 83.654,672.51C84.758,671.301 84.808,671.528 86.502,671.497C87.729,673.101 88.682,671.764 107.814,685.014C108.16,685.253 114.444,689.605 113.052,684.495C112.351,681.925 110.509,675.164 108.255,651.546C97.694,540.883 97.746,492.314 97.761,478.44C97.764,475.662 88.132,474.478 89.046,470.419C90.733,462.93 104.98,422.493 106.605,401.519C107.057,395.685 116.415,326.701 115.063,318.555C116.416,316.5 117.079,316.306 115.519,314.489C115.626,314.015 116.669,314.227 116.776,313.754C117.088,312.376 116.669,310.93 116.645,309.517C116.552,304.064 116.559,287.356 116.163,284.526C112.491,258.318 116.712,212.422 116.462,197.501C116.421,195.095 116.033,171.973 114.617,167.478C111.24,156.756 111.48,152.441 105.764,153.896C105.347,153.528 105.404,153.519 103.218,150.472Z" style="fill:rgb(160,167,175);"/>
        <path d="M722.036,185.499C722.352,186.573 722.221,186.579 721.822,199.501C723.441,216.392 734.936,305.104 740.949,319.403C744.722,328.376 745.061,371.059 757.559,357.536C757.516,357.186 757.473,356.835 757.431,356.485C753.503,333.495 759.022,320.104 751.605,279.48C751.982,278.864 752.359,278.249 752.736,277.633C752.871,277.37 753.691,277.3 753.382,274.384C753.223,272.892 753.957,274.415 755.508,274.499C756.409,296.791 758.98,310.373 759.111,343.503C759.26,381.148 785.54,427.897 798.376,470.551C799.388,473.913 799.53,479.767 803.478,479.201C806.2,478.81 837.273,474.348 836.751,470.597C836.19,466.565 834.491,467.082 823.185,421.545C815.086,388.921 815.28,351.273 810.094,322.636C811.058,322.39 812.022,322.144 812.986,321.898C814.895,330.268 813.08,330.352 814.458,335.505C821.391,361.425 812.93,379.161 838.848,466.448C840.854,473.205 838.91,473.353 832.739,476.695C831.301,477.474 832.301,505.545 831.762,518.521C831.617,522.037 824.905,610.924 824.833,611.544C821.612,639.425 819.384,675.725 815.839,686.126C816.059,686.586 816.279,687.046 816.499,687.506C818.882,686.251 818.885,686.503 821.202,685.029C840.858,672.526 841.194,673.08 842.749,671.785L845.427,672.514C837.495,742.391 831.564,740.921 823.529,764.512C818.208,780.135 818.018,840.635 813.564,864.514C812.212,871.763 806.868,914.495 810.992,953.43C812.822,970.699 821.51,980.998 807.478,981.282C794.741,981.539 760.96,984.754 760.003,979.63C759.073,974.646 762.412,974.508 754.927,916.456C742.781,822.249 733.807,821.537 749.947,752.585C764.923,688.609 752.7,687.794 752.954,578.499C753.055,534.749 740.796,538.413 726.973,511.282C696.966,452.386 743.186,400.942 744.251,377.489C746.202,334.551 732.342,309.11 728.695,280.473C718.724,202.183 718.569,202.347 718.293,195.504C719.577,191.591 719.513,191.738 720.693,187.786C721.141,187.024 721.588,186.261 722.036,185.499Z" style="fill:rgb(151,160,168);"/>
        <path d="M181.678,360.129L181.552,362.488C179.542,404.847 215.164,437.694 209.304,473.478C204.165,504.858 203.801,505.301 184.691,530.64C164.672,557.184 176.427,607.74 173.029,631.473C169.92,653.196 169.662,690.145 169.043,693.312C168.312,697.055 145.161,698.996 117.375,690.64C112.056,686.213 95.731,474.755 101.637,477.679C108.419,481.035 129.128,485.975 131.515,479.505C143.394,447.307 142.32,447.076 155.162,415.359C163.053,395.871 169.879,367.855 170.902,363.654C171.966,359.289 174.891,363.858 181.678,360.129Z" style="fill:rgb(241,242,245);"/>
        <path d="M747.368,359.208C751.639,362.552 751.966,361.722 757.347,361.806C759.284,361.837 759.709,383.03 776.598,421.463C800.203,475.178 794.946,483.524 803.545,482.876C826.005,481.184 825.272,478.072 827.203,477.999C831.214,477.846 825.787,549.3 825.318,555.483C820.763,615.455 820.188,615.32 819.953,620.537C818.468,653.57 814.041,673.747 813.321,688.397C813.023,694.45 766.005,698.799 760.192,694.881L759.977,693.235C757.83,638.316 755.636,638.513 755.643,583.5C755.648,543.289 752.678,543.164 735.776,519.295C707.38,479.194 726.092,434.456 728.928,427.675C736.253,410.163 749.829,387.164 747.204,361.399C747.258,360.669 747.313,359.938 747.368,359.208Z" style="fill:rgb(241,242,245);"/>
        <path d="M370.514,693.54C390.056,679.94 405.455,678.929 427.669,695.066C428.638,695.692 428.381,695.681 429.532,696.425C429.638,696.493 429.532,696.425 430.892,697.199C432.092,698.063 433.293,698.926 434.494,699.789C434.887,699.79 436.558,699.794 438.86,697.524C438.467,704.756 437.074,712.629 436.73,716.532C434.231,744.905 420.599,742.853 421.283,803.506C421.561,828.154 424.995,828.459 413.685,888.546C397.558,974.229 412.395,976.106 408.108,982.274C406.881,984.04 365.103,988.01 365.384,977.49C367.056,915.009 336.203,859.024 353.307,772.455C359.781,739.686 357.378,739.493 362.061,706.449C362.908,705.503 363.755,704.557 364.602,703.611L365.303,703.451C367.225,696.071 367.099,696.06 367.273,695.422C368.354,694.795 369.434,694.168 370.514,693.54Z" style="fill:rgb(130,141,150);"/>
        <path d="M85.573,177.678C89.917,180.124 83.401,190.361 93.765,217.412C108.151,254.963 103.501,302.708 115.063,318.555C116.415,326.701 107.057,395.685 106.605,401.519C104.98,422.493 90.733,462.93 89.046,470.419C88.132,474.478 97.764,475.662 97.761,478.44C97.746,492.314 97.694,540.883 108.255,651.546C110.509,675.164 112.351,681.925 113.052,684.495C114.444,689.605 108.16,685.253 107.814,685.014C88.682,671.764 87.729,673.101 86.502,671.497C86.392,671.007 76.935,618.686 76.135,609.547C75.093,597.644 69.971,582.733 70.618,536.503C71.347,484.376 69.044,479.909 65.706,476.443C58.039,459.627 62.936,430.43 55.894,402.452C54.215,395.784 57.544,395.722 57.231,316.508C57.04,268.131 64.376,268.974 65.484,251.497C67.454,220.43 56.698,214.514 80.044,185.167C80.508,184.585 81.944,182.779 85.573,177.678Z" style="fill:rgb(241,242,245);"/>
        <path d="M842.219,177.219C844.133,177.844 844.037,177.716 844.133,177.844C857.268,195.35 867.135,207.074 863.591,234.511C859.809,263.786 871.999,263.14 871.656,317.504C871.161,395.817 874.936,395.902 873.116,402.45C866.021,427.99 870.754,465.611 862.387,477.439C854.803,488.162 860.714,571.948 856.147,589.468C855.844,590.631 845.974,660.355 843.255,670.282L842.749,671.785C841.194,673.08 840.858,672.526 821.202,685.029C818.885,686.503 818.882,686.251 816.499,687.506L815.839,686.126C819.384,675.725 821.612,639.425 824.833,611.544C824.905,610.924 831.617,522.037 831.762,518.521C832.301,505.545 831.301,477.474 832.739,476.695C838.91,473.353 840.854,473.205 838.848,466.448C812.93,379.161 821.391,361.425 814.458,335.505C813.08,330.352 814.895,330.268 812.986,321.898C813.007,321.838 812.983,321.895 815.104,317.331C824.364,297.406 826.327,263.298 826.602,258.511C828.949,217.731 841.625,219.772 842.219,177.219Z" style="fill:rgb(241,242,245);"/>
        <path d="M509.404,95.202C510.536,95.953 509.804,97.726 542.625,108.167C549.532,110.364 546.161,114.45 546.194,115.48C545.098,118.266 545.314,118.172 542.521,130.504C541.797,133.701 533.575,169.992 533.422,170.457C528.934,184.075 516.066,175.189 500.472,168.572C492.741,165.291 406.942,128.879 403.503,128.345C379.655,124.64 468.911,159.002 499.348,171.928C506.436,174.938 501.632,182.908 503.566,191.458C505.392,192.707 505.287,192.564 505.392,192.707C505.818,193.293 504.615,193.077 505.025,193.64L504.853,194.857C487.691,201.011 487.66,200.402 469.517,201.806C404.805,206.814 388.088,142.468 358.565,147.96C311.742,156.672 340.067,216.007 334.394,225.724C333.975,225.168 330.498,220.558 329.087,218.825C315.155,201.715 315.134,201.758 313.942,200.256C312.814,198.836 314.737,167.008 324.219,143.374C342.201,98.551 387.246,110.671 419.664,88.749C424.897,85.21 419.185,95.358 432.477,106.528C444.212,116.388 466.339,117.293 471.492,116.419C491.638,113.003 498.812,113.56 509.404,95.202Z" style="fill:rgb(240,242,245);"/>
        <path d="M427.285,71.575C428.325,71.674 428.154,71.77 431.508,73.482C425.47,84.164 425.079,84.077 425.275,85.434C430.758,123.375 481.852,112.903 488.739,109.984C515.208,98.763 503.764,87.719 501.494,83.45C502.875,81.812 502.776,81.9 503.818,79.909C504.189,80.373 507.923,85.044 507.153,86.543C506.048,88.693 507.452,88.279 509.445,89.501C509.859,91.124 509.833,90.926 510.697,92.414C509.538,95.023 509.42,94.957 509.404,95.202C498.812,113.56 491.638,113.003 471.492,116.419C466.339,117.293 444.212,116.388 432.477,106.528C419.185,95.358 424.897,85.21 419.664,88.749C387.246,110.671 342.201,98.551 324.219,143.374C314.737,167.008 312.814,198.836 313.942,200.256C315.134,201.758 315.155,201.715 329.087,218.825C330.498,220.558 333.975,225.168 334.394,225.724C334.801,226.025 337.5,228.026 339.454,229.517C343.096,252.353 344.329,255.863 343.617,299.465C343.614,304.229 343.411,304.18 345.399,308.482C342.135,339.185 334.872,378.479 333.754,384.532C318.502,467.045 321.999,467.466 319.883,474.429C319.723,477.322 321.183,483.644 305.484,485.001C283.778,486.878 287.386,478.483 287.142,472.491C287.018,469.451 285.873,441.297 285.107,434.52C275.561,350.101 293.933,318.696 299.35,279.487C303.562,249.006 304.325,249.165 304.506,246.5C304.614,244.898 305.548,231.155 306.755,226.554C311.93,206.833 308.58,156.792 328.921,127.794C353.403,92.893 418.172,106.066 427.285,71.575Z" style="fill:rgb(164,171,179);"/>
        <path d="M183.491,206.581C183.514,216.228 177.201,248.435 176.866,250.559C163.443,335.654 181.428,346.37 148.659,422.579C131.001,463.647 132.748,467.286 128.16,478.306C127.007,481.074 96.356,475.141 92.833,471.232C92.265,470.602 104.827,427.407 105.282,425.44C109.933,405.364 108.853,405.196 109.309,403.468C113.446,387.789 109.316,387.335 112.629,371.513C115.69,356.89 113.897,356.704 114.257,355.464C117.673,343.705 115.769,343.439 116.075,342.431C123.429,318.189 115.573,246.122 117.822,238.791C117.858,238.673 144.138,224.371 183.491,206.581Z" style="fill:rgb(241,242,245);"/>
        <path d="M746.456,206.899C751.584,209.319 800.885,232.585 810.239,237.82C814.609,240.266 808.171,275.236 810.094,322.636C815.28,351.273 815.086,388.921 823.185,421.545C834.491,467.082 836.19,466.565 836.751,470.597C837.273,474.348 806.2,478.81 803.478,479.201C799.53,479.767 799.388,473.913 798.376,470.551C785.54,427.897 759.26,381.148 759.111,343.503C758.98,310.373 756.409,296.791 755.508,274.499C755.393,273.863 754.125,266.874 754.098,266.543C753.931,264.517 753.982,262.467 753.663,260.459C748.24,226.355 747.477,226.526 747.226,223.538C746.021,209.183 745.552,209.2 746.456,206.899Z" style="fill:rgb(241,242,245);"/>
        <path d="M539.251,170.455C540.925,172.074 540.758,172.103 542.454,173.553C560.032,188.584 562.665,207.902 560.155,216.397C555.301,232.825 557.187,233.169 556.766,234.588C556.22,236.43 554.393,242.598 554.532,258.499C554.565,262.351 554.898,300.529 555.373,306.643C556.873,309.223 556.878,309.199 556.993,309.429C557.276,309.992 556.712,309.98 556.952,310.458C555.438,324.75 555.579,328.885 555.633,330.49C556.56,357.638 558.572,357.412 559.114,384.513C559.426,400.089 567.135,415.835 569.806,432.435C583.137,515.259 588.528,537.611 580.337,609.481C575.932,648.143 571.484,647.575 571.169,686.492C570.837,727.621 572.736,727.516 572.903,740.458C572.717,741.08 571.444,740.878 571.258,741.5C570.935,742.578 571.234,742.538 570.937,755.56C571.047,761.184 574.414,800.127 541.474,798.861C522.873,798.145 512.505,751.047 513.698,777.487C514.494,795.112 508.421,836.185 517.289,868.555C520.593,880.617 526.093,918.15 526.728,922.483C533.859,971.151 525.554,971.557 526.764,979.353C527.053,981.209 557.595,981.386 557.993,978.678C558.623,974.38 559.769,957.408 559.895,955.556C559.911,955.308 559.952,955.333 560.675,952.545C562.624,946.58 560.521,946.205 563.177,940.476C563.661,941.672 563.62,941.511 564.049,942.632C564.171,942.95 564.546,943.117 564.693,943.424C566.748,947.708 563.588,948.08 565.103,952.5C565.338,953.185 566.753,952.893 566.988,953.578C564.453,966.91 566.19,970.48 566.176,979.485C566.173,981.888 565.647,984.229 536.502,984.197C526.741,984.186 521.706,986.148 523.599,976.522C528.445,951.878 523.585,925.656 523.572,925.487C522.432,911.587 520.924,911.974 519.918,902.437C519.691,900.286 510.113,847.338 509.825,842.464C507.127,796.776 517.21,788.096 503.264,745.595C488.645,701.045 496.667,679.788 483.968,626.39C472.824,579.526 480.665,568.324 478.739,543.466C478.467,539.954 473.494,538.184 454.497,540.486C448.498,541.212 457.454,588.334 451.783,606.596C443.687,632.67 441.781,682.09 438.86,697.524C436.558,699.794 434.887,699.79 434.494,699.789C435.509,695.479 437.28,687.962 441.741,644.911C445.238,624.219 444.519,624.084 445.171,622.382C453.721,600.047 449.423,554.517 449.595,543.499C449.767,532.457 470.681,535.759 477.426,536.979C489.152,539.099 477.332,571.193 483.332,605.533C483.898,608.774 488.691,636.206 491.327,645.879C492.095,654.816 492.068,654.761 492.156,655.531C496.992,697.559 495.35,701.069 498.487,699.413C498.487,699.413 500.495,698.653 500.669,698.587L501.363,697.426C502.397,696.75 503.431,696.074 504.466,695.399C506.428,693.961 520.124,683.927 532.502,683.624C550.832,683.174 560.266,692.517 561.493,693.513C564.434,695.901 563.625,675.582 566.162,667.445C567.264,662.669 577.279,570.814 571.344,485.51C569.745,462.517 570.556,462.492 570.309,460.505C566.316,428.433 564.441,422.685 563.41,419.525C552.804,387.014 556.497,353.916 554.298,345.527C551.32,334.17 553.874,317.056 553.231,309.486C550.17,273.482 551.012,273.593 552.982,237.543C554.42,211.223 570.156,204.713 537.493,173.47C537.573,173.202 537.981,171.846 539.251,170.455Z" style="fill:rgb(162,169,177);"/>
        <path d="M843.728,173.383C839.519,167.1 832.499,158.893 828.52,154.482C809.675,133.594 807.061,192.898 811.329,234.119C805.662,232.872 805.892,232.513 745.729,203.171C742.121,201.412 742.025,172.768 737.676,165.404C727.007,147.337 722.299,183.479 722.036,185.499C721.588,186.261 721.141,187.024 720.693,187.786C718.946,184.631 716.637,151.536 735.675,112.587C744.356,94.826 765.727,71.291 768.492,72.586C788.432,81.919 800.848,89.915 825.358,118.58C827.5,121.086 825.177,122.766 831.83,135.339C844.201,158.719 842.943,159.173 853.627,183.485C858.849,195.367 850.481,180.321 843.728,173.383Z" style="fill:rgb(241,242,245);"/>
        <path d="M810.694,694.091L811.429,694.544C810.369,705.026 791.557,743.86 813.007,789.673C823.94,813.024 797.421,890.42 809.526,962.495C811.144,972.131 816.453,977.108 806.55,977.427C803.668,977.52 796.664,903.07 772.338,850.584C748.457,799.061 749.725,798.417 746.73,794.497C744.804,781.763 747.943,775.198 750.284,765.457C762.16,716.028 759.938,704.933 760.571,699.552C760.877,696.943 790.111,702.517 810.694,694.091Z" style="fill:rgb(241,242,245);"/>
        <path d="M117.732,693.611C144.225,704.254 168.805,694.974 169.072,700.574C170.351,727.391 170.082,727.385 176.45,753.508C183.965,784.338 186.774,785.601 173.708,814.599C141.115,886.938 144.403,888.288 141.297,894.442C134.939,907.036 127.087,961.742 122.949,977.852C113.72,976.609 117.956,972.582 119.559,963.506C129.768,905.702 115.943,871.791 113.848,804.472C113.717,800.242 113.562,800.34 113.434,798.491C113.265,797.946 113.095,797.401 112.926,796.855C113.814,793.898 113.884,794.133 115.347,791.434C138.012,749.625 117.716,697.471 117.732,693.611Z" style="fill:rgb(241,242,245);"/>
        <path d="M570.937,755.56C572.944,754.928 573.2,755.32 573.391,757.529C576.639,795.167 582.61,794.7 580.354,832.486C575.24,918.137 564.873,922.267 563.177,940.476C560.521,946.205 562.624,946.58 560.675,952.545C559.952,955.333 559.911,955.308 559.895,955.556C559.769,957.408 558.623,974.38 557.993,978.678C557.595,981.386 527.053,981.209 526.764,979.353C525.554,971.557 533.859,971.151 526.728,922.483C526.093,918.15 520.593,880.617 517.289,868.555C508.421,836.185 514.494,795.112 513.698,777.487C512.505,751.047 522.873,798.145 541.474,798.861C574.414,800.127 571.047,761.184 570.937,755.56Z" style="fill:rgb(241,242,245);"/>
        <path d="M360.54,744.542L361.741,744.369C361.629,757.964 358.858,782.046 372.529,793.466C398.444,815.114 415.587,770.889 415.664,770.803C417.557,771.452 418.365,770.65 418.354,772.541C417.994,832.8 420.42,832.958 415.199,862.443C407.156,907.868 407.734,907.859 403.567,938.508C401.812,951.417 404.731,973.737 404.837,978.528C404.914,981.98 377.005,981.338 374.204,978.706C374.164,970.684 370.498,935.65 365.429,928.506C364.852,925.255 364.565,925.501 363.77,922.46C362.884,919.074 357.257,897.552 355.732,879.453C355.436,875.932 352.585,842.095 351.642,835.483C347.159,804.061 358.485,774.269 360.54,744.542Z" style="fill:rgb(241,242,245);"/>
        <path d="M290.563,474.429C289.207,408.51 278.762,392.078 293.96,321.54C295.123,316.141 303.916,275.335 305.752,253.525C307.282,235.355 309.794,235.79 310.846,217.509C311.199,211.369 311.994,211.578 312.262,205.367C312.413,201.853 315.426,206.904 328.951,224.144C336.419,233.664 337.555,233.36 338.729,245.481C345.999,320.499 334.956,356.281 332.121,365.467C325.845,385.802 321.814,384.622 313.045,432.487C309.596,451.308 311.884,451.374 311.374,470.441C311.299,473.217 308.988,468.916 290.563,474.429Z" style="fill:rgb(241,242,245);"/>
        <path d="M619.511,212.531C620.815,214.392 621.053,214.235 621.205,215.544C624.518,244.094 624.876,244.021 625.027,246.513C628.975,311.756 652.916,336.573 644.753,421.531C644.569,423.449 642.863,441.206 642.737,445.524C641.929,473.123 641.616,475.006 639.56,473.994C635.848,472.167 619.419,471.415 619.581,470.436C622.876,450.496 621.51,450.562 619.473,430.504C618.786,423.736 602.943,370.272 600.874,366.435C599.92,360.837 599.271,361.291 598.685,360.486C595.092,343.599 595.471,343.642 593.542,326.496C592.791,319.82 589.554,291.052 593.956,242.517C594.494,236.584 598.122,233.907 619.511,212.531Z" style="fill:rgb(241,242,245);"/>
        <path d="M151.482,103.186C156.16,103.189 160.838,103.192 165.517,103.195C173.355,105.312 173.613,104.304 180.589,108.33C202.45,120.943 200.523,129.233 205.965,145.37C207.571,150.134 211.12,186.766 209.725,187.696C209.313,187.971 208.652,187.443 208.24,187.718C207.835,186.667 201.9,147.184 191.972,164.746C186.59,174.265 187.62,201.032 183.229,203.089C150.202,218.554 134.944,226.501 118.367,233.939L117.726,233.153C119.672,217.345 123.827,146.007 105.392,150.806C105.222,150.85 105.392,150.806 103.218,150.472C103.501,150.013 128.019,103.65 151.482,103.186Z" style="fill:rgb(241,242,245);"/>
        <path d="M554.216,102.662C585.09,113.745 602.235,107.546 616.136,160.561C623.427,188.365 622.87,205.921 622.689,210.536C621.63,211.201 620.57,211.866 619.511,212.531C598.122,233.907 594.494,236.584 593.956,242.517C589.554,291.052 592.791,319.82 593.542,326.496C595.471,343.642 595.092,343.599 598.685,360.486C596.637,362.799 597.236,363.205 594.613,364.477C588.214,294.274 579.987,295.916 576.894,274.429C575.088,261.883 574.421,262.102 573.103,249.552C572.762,246.31 573.863,245.092 570.562,244.55C572.15,239.324 570.579,233.428 570.33,232.496C570.359,231.296 570.65,219.345 572.62,217.666C573.595,216.835 575.627,217.596 575.269,219.497C571.068,241.795 582.299,280.845 587.685,302.14C588.209,302.212 588.732,302.285 589.256,302.358C588.809,289.278 589.078,278.529 589.079,275.503C589.111,215.8 611.021,171.983 586.403,155.663C563.716,140.624 539.819,169.924 539.251,170.455C537.981,171.846 537.573,173.202 537.493,173.47C529.964,177.584 532.42,183.085 508.548,196.61C497.757,202.723 463.501,209.966 434.462,200.638C398.147,188.974 402.119,166.759 390.928,176.963C365.658,200.005 377.844,217.146 380.232,245.526C382.058,267.238 379.053,337.674 378.736,339.602C376.406,353.775 378.489,385.57 370.461,410.486C367.699,419.059 364.096,438.551 363.931,440.519C361.244,472.741 362.053,472.739 361.749,475.529C354.275,544.072 363.54,652.789 364.284,655.538C369.334,674.206 365.313,674.883 370.514,693.54C369.434,694.168 368.354,694.795 367.273,695.422C364.461,686.302 365.19,661.71 361.729,659.493C361.766,658.813 361.803,658.132 361.84,657.452C360.505,630.86 358.829,631.149 358.072,604.499C357.244,575.342 356.573,575.544 356.145,546.487C355.727,518.158 357.904,511.951 355.407,505.47C356.163,503.359 359.374,494.386 358.398,477.602C359.794,466.089 358.806,463.619 358.358,462.497C358.455,460.167 358.896,449.646 361.799,433.552C362.353,430.478 366.982,404.811 370.368,395.454C375.508,381.25 371.778,359.705 374.528,348.506C375.557,344.314 376.244,315.204 375.178,313.518C372.313,308.988 371.86,298.765 371.045,296.592C367.627,287.473 361.034,242.782 360.666,242.11C360.307,242.265 359.948,242.421 359.588,242.577C359.022,245.28 358.99,245.258 358.976,245.497C358.789,248.751 357.684,267.932 351.746,285.601C347.854,297.179 347.95,304.548 345.399,308.482C343.411,304.18 343.614,304.229 343.617,299.465C344.476,299.424 345.313,299.385 347.735,289.541C363.827,224.139 356.129,218.928 356.742,216.576C356.914,215.92 359.89,213.498 360.445,220.51C361.742,236.909 363.183,236.649 363.734,241.443C363.901,242.896 365.651,258.112 366.196,259.554C366.574,260.554 367.667,263.445 369.166,272.575C369.598,275.206 372.264,291.447 375.657,305.264C378.041,303.832 376.382,300.312 376.984,265.501C377.634,227.918 372.81,228.423 371.652,215.473C369.159,187.601 387.183,177.127 392.451,171.482C394.588,169.193 373.783,152.973 367.444,151.957C325.149,145.18 334.906,195.834 339.454,229.517C337.5,228.026 334.801,226.025 334.394,225.724C340.067,216.007 311.742,156.672 358.565,147.96C388.088,142.468 404.805,206.814 469.517,201.806C487.66,200.402 487.691,201.011 504.853,194.857C504.91,194.452 504.968,194.046 505.025,193.64C504.615,193.077 505.818,193.293 505.392,192.707C505.287,192.564 505.392,192.707 503.566,191.458C501.632,182.908 506.436,174.938 499.348,171.928C468.911,159.002 379.655,124.64 403.503,128.345C406.942,128.879 492.741,165.291 500.472,168.572C516.066,175.189 528.934,184.075 533.422,170.457C533.575,169.992 541.797,133.701 542.521,130.504C545.314,118.172 545.098,118.266 546.194,115.48C548.278,119.166 548.514,118.905 549.713,122.594C548.719,124.515 548.742,124.344 548.719,124.515C546.805,138.656 545.532,138.264 545.394,139.482C543.8,153.585 535.754,170.37 543.898,161.95C567.099,137.966 600.145,145.875 600.561,180.5C600.894,208.167 597.569,213.577 597.23,218.465C596.377,230.767 594.994,230.592 595.491,231.521C596.102,232.661 619.341,208.047 619.631,207.586C619.672,207.255 619.713,206.923 619.753,206.592C619.511,197.448 617.279,187.455 616.404,175.507C615.184,158.832 607.403,142.359 606.129,139.662C590.849,107.315 563.768,110.64 555.484,106.68C554.494,106.206 555.269,105.573 554.266,105.136C553.606,104.849 554.477,106.241 553.798,105.946L553.855,104.768C553.975,104.066 554.096,103.364 554.216,102.662Z" style="fill:rgb(157,165,173);"/>
        <path d="M441.741,644.911C437.28,687.962 435.509,695.479 434.494,699.789C433.293,698.926 432.092,698.063 430.892,697.199C432.736,694.606 433.036,692.828 433.107,692.412C433.751,688.594 439.891,652.233 440.188,644.533C440.841,627.575 443.625,615.173 443.782,609.52C444.882,569.829 450.985,568.246 433.794,532.367C408.386,479.336 463.418,475.74 476.578,479.256C521.755,491.325 502.201,525.582 496.688,536.603C478.755,572.446 489.047,594.092 492.868,645.645L491.327,645.879C488.691,636.206 483.898,608.774 483.332,605.533C477.332,571.193 489.152,539.099 477.426,536.979C470.681,535.759 449.767,532.457 449.595,543.499C449.423,554.517 453.721,600.047 445.171,622.382C444.519,624.084 445.238,624.219 441.741,644.911Z" style="fill:rgb(239,241,244);"/>
        <path d="M369.002,702.491C370.894,692.833 397.985,675.219 427.112,698.836C428.844,700.241 428.214,700.727 423.153,726.433C408.775,799.463 391.267,798.278 384.409,795.854C350.12,783.736 369.492,741.211 369.002,702.491Z" style="fill:rgb(241,242,245);"/>
        <path d="M562.443,698.541C563.105,700.51 562.965,713.951 565.203,729.543C565.388,730.832 578.665,789.423 547.439,796.052C541.9,797.228 524.388,800.946 510.875,735.438C510.298,732.643 503.961,701.921 504.089,700.415C504.094,700.357 531.069,671.35 562.443,698.541Z" style="fill:rgb(241,242,245);"/>
        <path d="M843.728,173.383C850.481,180.321 858.849,195.367 853.627,183.485C842.943,159.173 844.201,158.719 831.83,135.339C825.177,122.766 827.5,121.086 825.358,118.58C800.848,89.915 788.432,81.919 768.492,72.586C765.727,71.291 744.356,94.826 735.675,112.587C716.637,151.536 718.946,184.631 720.693,187.786C719.513,191.738 719.577,191.591 718.293,195.504C711.554,178.31 719.568,116.804 751.68,83.678C766.279,68.618 766.442,68.158 769.977,47.561C770.656,43.607 775.309,39.397 815.601,68.371C844.845,89.4 841.861,93.824 840.196,96.292C825.891,117.502 827.82,120.192 840.18,143.666C846.167,155.036 860.315,194.001 862.744,200.472C872.961,227.701 861.827,232.64 869.981,267.445C882.608,321.346 870.165,322.456 876.456,377.506C878.542,395.76 874.9,396.522 869.562,469.504C868.676,481.606 862.658,484.45 862.068,510.489C861.249,546.558 863.271,546.568 859.318,582.485C858.7,588.104 852.848,641.272 849.129,652.414C847.98,655.857 847.152,665.328 847.054,666.46C846.768,669.734 846.866,669.613 845.427,672.514L842.749,671.785C842.918,671.284 843.086,670.783 843.255,670.282C845.974,660.355 855.844,590.631 856.147,589.468C860.714,571.948 854.803,488.162 862.387,477.439C870.754,465.611 866.021,427.99 873.116,402.45C874.936,395.902 871.161,395.817 871.656,317.504C871.999,263.14 859.809,263.786 863.591,234.511C867.135,207.074 857.268,195.35 844.133,177.844C844.037,177.716 844.133,177.844 842.219,177.219C842.574,175.053 842.507,175.159 843.728,173.383Z" style="fill:rgb(167,175,182);"/>
        <path d="M539.251,170.455C539.819,169.924 563.716,140.624 586.403,155.663C611.021,171.983 589.111,215.8 589.079,275.503C589.078,278.529 588.809,289.278 589.256,302.358L587.685,302.14C582.299,280.845 571.068,241.795 575.269,219.497C575.627,217.596 573.595,216.835 572.62,217.666C570.65,219.345 570.359,231.296 570.33,232.496C566.691,238.708 565.693,270.164 555.373,306.643C554.898,300.529 554.565,262.351 554.532,258.499C554.393,242.598 556.22,236.43 556.766,234.588C557.187,233.169 555.301,232.825 560.155,216.397C562.665,207.902 560.032,188.584 542.454,173.553C540.758,172.103 540.925,172.074 539.251,170.455Z" style="fill:rgb(240,241,244);"/>
        <path d="M339.454,229.517C334.906,195.834 325.149,145.18 367.444,151.957C373.783,152.973 394.588,169.193 392.451,171.482C387.183,177.127 369.159,187.601 371.652,215.473C372.81,228.423 377.634,227.918 376.984,265.501C376.382,300.312 378.041,303.832 375.657,305.264C372.264,291.447 369.598,275.206 369.166,272.575C367.667,263.445 366.574,260.554 366.196,259.554C365.651,258.112 363.901,242.896 363.734,241.443C363.183,236.649 361.742,236.909 360.445,220.51C359.89,213.498 356.914,215.92 356.742,216.576C356.129,218.928 363.827,224.139 347.735,289.541C345.313,299.385 344.476,299.424 343.617,299.465C344.329,255.863 343.096,252.353 339.454,229.517Z" style="fill:rgb(240,241,244);"/>
        <path d="M843.728,173.383C842.507,175.159 842.574,175.053 842.219,177.219C841.625,219.772 828.949,217.731 826.602,258.511C826.327,263.298 824.364,297.406 815.104,317.331C812.983,321.895 813.007,321.838 812.986,321.898C812.022,322.144 811.058,322.39 810.094,322.636C808.171,275.236 814.609,240.266 810.239,237.82C800.885,232.585 751.584,209.319 746.456,206.899C744.469,206.021 744.388,206.549 742.342,205.61C738.663,197.342 735.897,139.215 726.752,175.516C720.849,198.95 743.449,247.541 750.522,271.494C750.557,271.614 750.522,271.494 751.285,272.852C751.384,273.239 751.438,273.033 752.736,277.633C752.359,278.249 751.982,278.864 751.605,279.48C749.459,276.495 727.647,220.088 725.542,207.489C725.11,204.903 725.519,205.001 725.097,202.564C724.423,198.667 722.314,199.961 721.822,199.501C722.221,186.579 722.352,186.573 722.036,185.499C722.299,183.479 727.007,147.337 737.676,165.404C742.025,172.768 742.121,201.412 745.729,203.171C805.892,232.513 805.662,232.872 811.329,234.119C807.061,192.898 809.675,133.594 828.52,154.482C832.499,158.893 839.519,167.1 843.728,173.383Z" style="fill:rgb(163,171,179);"/>
        <path d="M553.798,105.946C554.477,106.241 553.606,104.849 554.266,105.136C555.269,105.573 554.494,106.206 555.484,106.68C563.768,110.64 590.849,107.315 606.129,139.662C607.403,142.359 615.184,158.832 616.404,175.507C617.279,187.455 619.511,197.448 619.753,206.592L619.631,207.586C619.341,208.047 596.102,232.661 595.491,231.521C594.994,230.592 596.377,230.767 597.23,218.465C597.569,213.577 600.894,208.167 600.561,180.5C600.145,145.875 567.099,137.966 543.898,161.95C535.754,170.37 543.8,153.585 545.394,139.482C545.532,138.264 546.805,138.656 548.719,124.515C548.742,124.344 548.719,124.515 549.713,122.594C551.565,116.46 552.038,110.496 552.123,109.429C552.285,109.165 552.094,109.197 553.798,105.946Z" style="fill:rgb(241,242,245);"/>
        <path d="M184.491,796.358C190.977,815.591 168.776,903.955 166.579,964.504C166.236,973.969 170.481,977.72 162.281,978.72C153.771,964.711 147.972,905.919 147.281,900.533C143.704,872.648 170.587,836.236 184.491,796.358Z" style="fill:rgb(240,241,244);"/>
        <path d="M744.894,796.907C745.28,797.339 745.153,797.242 749.24,807.594C764.166,845.399 766.609,844.268 780.673,882.438C785.716,896.126 775.571,953.654 768.545,974.515C765.308,984.125 762.515,977.008 762.505,976.5C760.523,881.452 738.589,831.308 744.894,796.907Z" style="fill:rgb(240,241,244);"/>
        <path d="M427.285,71.575C426.176,68.631 421.139,59.669 432.835,51.962C435.699,50.075 454.328,37.8 474.569,42.182C514.384,50.803 505.826,76.349 505.929,77.486C505.226,78.294 504.522,79.101 503.818,79.909C502.776,81.9 502.875,81.812 501.494,83.45C496.466,84.641 498.298,80.896 498.112,78.572C496.701,74.756 495.72,78.001 492.369,80.281C460.815,101.742 435.034,76.883 431.508,73.482C428.154,71.77 428.325,71.674 427.285,71.575Z" style="fill:rgb(127,137,147);"/>
        <path d="M137.646,86.528C136.595,87.198 135.544,87.867 134.493,88.537C131.372,90.82 104.395,110.554 102.124,124.423C100.43,134.774 96.109,133.037 81.249,170.393C77.467,179.902 74.034,183.352 76.354,185.112C75.556,185.406 75.516,186.777 74.717,187.071C74.383,187.194 72.293,184.515 72.105,184.274C88.838,140.638 92.337,137.983 95.719,131.601C106.419,111.418 93.794,104.557 88.564,95.456C82.649,85.162 144.71,47.128 155.379,44.125C156.821,43.719 158.656,43.627 162.136,61.583C165.958,81.303 181.114,77.904 195.978,111.108C195.785,111.21 193.573,112.371 193.573,112.371C193.573,112.371 190.626,109.931 190.37,109.719C192.752,104.216 189.538,104.75 186.05,99.783C174.001,82.629 161.573,72.111 161.53,72.124C159.292,72.819 139.307,82.79 137.646,86.528Z" style="fill:rgb(163,170,178);"/>
        <path d="M622.689,210.536C625.277,214.616 634.391,301.792 641.832,324.395C642.999,327.94 650.645,371.835 650.043,388.496C648.969,418.282 648.068,422.59 647.461,425.494C646.822,428.552 647.675,428.599 645.106,464.469C644.016,479.686 644.976,484.839 635.493,485.034C610.646,485.544 611.834,479.616 611.733,474.524C611.094,442.214 599.183,395.72 598.001,382.524C597.216,373.755 595.01,365.892 594.613,364.477C597.236,363.205 596.637,362.799 598.685,360.486C599.271,361.291 599.92,360.837 600.874,366.435C602.943,370.272 618.786,423.736 619.473,430.504C621.51,450.562 622.876,450.496 619.581,470.436C619.419,471.415 635.848,472.167 639.56,473.994C641.616,475.006 641.929,473.123 642.737,445.524C642.863,441.206 644.569,423.449 644.753,421.531C652.916,336.573 628.975,311.756 625.027,246.513C624.876,244.021 624.518,244.094 621.205,215.544C621.053,214.235 620.815,214.392 619.511,212.531C620.57,211.866 621.63,211.201 622.689,210.536Z" style="fill:rgb(165,172,180);"/>
        <path d="M813.84,234.414C813.748,215.649 809.622,173.904 818.319,156.413C821.977,149.057 830.332,160.975 838.125,170.696C841.356,174.726 838.107,201.213 833.616,213.531C819.929,251.076 826.036,252.37 818.479,291.495C806.691,352.534 816.366,275.748 813.84,234.414Z" style="fill:rgb(239,240,244);"/>
        <path d="M105.764,153.896C111.48,152.441 111.24,156.756 114.617,167.478C116.033,171.973 116.421,195.095 116.462,197.501C116.712,212.422 112.491,258.318 116.163,284.526C116.559,287.356 116.552,304.064 116.645,309.517C116.669,310.93 117.088,312.376 116.776,313.754C116.669,314.227 115.626,314.015 115.519,314.489C101.402,269.519 113.503,266.821 95.638,213.466C91.31,200.54 89.065,174.747 90.702,171.611C93.253,166.724 102.514,156.814 103.638,155.611L105.764,153.896Z" style="fill:rgb(240,241,245);"/>
        <path d="M816.594,788.628C811.295,784.198 807.162,759.437 805.905,754.425C802.94,742.606 812.226,694.296 817.247,691.176C840.448,676.759 842.482,675.34 842.085,677.571C834.766,718.77 838.411,719.699 822.107,758.35C817.206,769.968 816.883,779.452 816.594,788.628Z" style="fill:rgb(239,240,243);"/>
        <path d="M113.35,789.312C113.282,788.888 112.22,789.261 112.152,788.837C110.655,779.449 115.895,778.231 101.782,746.364C91.475,723.091 93.866,706.989 87.47,677.488C86.328,672.223 99.003,684.484 112.558,691.442C114.917,692.653 125.941,735.844 123.091,754.428C121.084,767.512 114.319,786.581 113.35,789.312Z" style="fill:rgb(240,241,244);"/>
        <path d="M431.508,73.482C435.034,76.883 460.815,101.742 492.369,80.281C495.72,78.001 496.701,74.756 498.112,78.572C498.298,80.896 496.466,84.641 501.494,83.45C503.764,87.719 515.208,98.763 488.739,109.984C481.852,112.903 430.758,123.375 425.275,85.434C425.079,84.077 425.47,84.164 431.508,73.482Z" style="fill:rgb(240,241,244);"/>
        <path d="M206.357,214.497C206.134,217.398 205.492,217.257 201.063,250.484C193.397,307.998 190.79,307.412 187.282,322.447C185.697,329.244 182.638,369.771 171.938,358.132C171.096,357.217 174.324,302.35 174.61,297.503C176.199,270.493 203.79,230.519 205.159,192.436C206.051,167.604 207.184,197.079 207.2,197.516C207.25,198.876 207.325,200.95 206.357,214.497Z" style="fill:rgb(239,240,243);"/>
        <path d="M721.822,199.501C722.314,199.961 724.423,198.667 725.097,202.564C725.519,205.001 725.11,204.903 725.542,207.489C727.647,220.088 749.459,276.495 751.605,279.48C759.022,320.104 753.503,333.495 757.431,356.485L757.559,357.536C745.061,371.059 744.722,328.376 740.949,319.403C734.936,305.104 723.441,216.392 721.822,199.501Z" style="fill:rgb(239,241,244);"/>
        <path d="M768.766,67.55C773.396,48.56 773.959,47.942 775.527,48.375C775.759,48.439 801.05,59.953 819.098,74.987C839.161,91.7 838.221,93.512 837.033,95.184C824.834,112.367 827.036,115.282 825.579,114.259C814.922,106.784 814.525,89.817 767.85,69.151L768.766,67.55Z" style="fill:rgb(240,241,244);"/>
        <path d="M492.868,645.645C489.047,594.092 478.755,572.446 496.688,536.603C502.201,525.582 521.755,491.325 476.578,479.256C463.418,475.74 408.386,479.336 433.794,532.367C450.985,568.246 444.882,569.829 443.782,609.52C443.625,615.173 440.841,627.575 440.188,644.533C439.891,652.233 433.751,688.594 433.107,692.412C433.036,692.828 432.736,694.606 430.892,697.199C429.532,696.425 429.638,696.493 429.532,696.425C428.381,695.681 428.638,695.692 427.669,695.066C433.038,687.867 446.779,577.711 440.511,555.498C435.406,537.408 396.783,492.05 456.447,475.335C464.569,473.06 531.297,474.64 500.293,536.401C484.364,568.133 490.71,570.407 493.943,631.487C495.036,652.147 497.294,651.744 498.886,672.488C499.011,674.11 500.715,673.626 502.415,692.512C502.787,696.655 504.424,695.356 504.466,695.399C503.431,696.074 502.397,696.75 501.363,697.426C498.174,692.673 494.823,654.967 492.868,645.645Z" style="fill:rgb(170,177,184);"/>
        <path d="M144.537,99.067C166.928,95.211 177.082,98.792 190.37,109.719C190.626,109.931 193.573,112.371 193.573,112.371C193.573,112.371 195.785,111.21 195.978,111.108C196.635,113.374 196.469,113.303 197.661,115.391C199.219,118.119 209.146,135.508 210.428,152.516C211.776,170.411 214.517,180.055 210.721,196.504C208.297,192.552 209.102,192.39 208.24,187.718C208.652,187.443 209.313,187.971 209.725,187.696C211.12,186.766 207.571,150.134 205.965,145.37C200.523,129.233 202.45,120.943 180.589,108.33C173.613,104.304 173.355,105.312 165.517,103.195C161.515,99.457 161.044,100.713 155.527,100.606C152.753,100.553 153.314,101.445 151.482,103.186C128.019,103.65 103.501,150.013 103.218,150.472C99.489,153.853 103.021,154.764 103.638,155.611C102.514,156.814 93.253,166.724 90.702,171.611C89.065,174.747 91.31,200.54 95.638,213.466C113.503,266.821 101.402,269.519 115.519,314.489C117.079,316.306 116.416,316.5 115.063,318.555C103.501,302.708 108.151,254.963 93.765,217.412C83.401,190.361 89.917,180.124 85.573,177.678C86.191,177.068 86.809,176.458 87.428,175.848C86.768,175.057 86.109,174.266 85.449,173.474C106.532,138.775 110.078,120.187 141.522,100.519L144.537,99.067Z" style="fill:rgb(137,147,156);"/>
        <path d="M142.779,899.725C143.366,899.644 143.952,899.563 144.539,899.481C145.122,905.702 149.545,952.921 157.847,976.431C158.482,978.228 158.558,978.869 156.631,978.82C151.424,978.688 126.973,979.395 127.151,976.603C127.629,969.139 135.654,930.489 136.483,926.497C139.312,912.874 139.492,913.135 142.779,899.725Z" style="fill:rgb(239,240,243);"/>
        <path d="M798.061,952.52C799.205,964.309 804.232,977.295 800.61,977.784C791.71,978.985 771.129,979.784 771.369,977.539C772.629,965.731 779.444,966.91 784.953,900.639C785.463,894.507 788.789,907.696 788.96,908.372C794.154,928.967 797.715,951 798.061,952.52Z" style="fill:rgb(239,240,243);"/>
        <path d="M457.512,61.709C461.225,61.741 476.814,57.94 495.411,70.602C502.947,75.733 461.635,97.169 435.743,73.292C432.128,69.959 446.696,63.019 457.512,61.709Z" style="fill:rgb(240,241,244);"/>
        <path d="M134.493,88.537C138.127,94.529 138.402,94.134 141.522,100.519C110.078,120.187 106.532,138.775 85.449,173.474C81.381,177.451 81.78,177.68 76.354,185.112C74.034,183.352 77.467,179.902 81.249,170.393C96.109,133.037 100.43,134.774 102.124,124.423C104.395,110.554 131.372,90.82 134.493,88.537Z" style="fill:rgb(238,239,242);"/>
        <path d="M742.342,205.61C742.258,208.181 742.246,208.53 746.528,237.493C746.695,238.625 747.886,246.677 749.335,251.523C749.591,252.378 749.392,252.309 751.143,262.522C751.266,263.237 752.539,270.657 752.486,271.498C752.448,272.1 751.323,272.25 751.285,272.852C750.522,271.494 750.557,271.614 750.522,271.494C743.449,247.541 720.849,198.95 726.752,175.516C735.897,139.215 738.663,197.342 742.342,205.61Z" style="fill:rgb(238,239,242);"/>
        <path d="M187.204,205.354C192.372,192.325 191.588,144.431 201.654,172.449C204.447,180.226 209.874,195.332 177.618,272.906C175.699,267.077 185.543,233.064 187.204,205.354Z" style="fill:rgb(238,239,243);"/>
        <path d="M85.449,173.474C86.109,174.266 86.768,175.057 87.428,175.848C86.809,176.458 86.191,177.068 85.573,177.678C81.944,182.779 80.508,184.585 80.044,185.167C56.698,214.514 67.454,220.43 65.484,251.497C64.376,268.974 57.04,268.131 57.231,316.508C57.544,395.722 54.215,395.784 55.894,402.452C62.936,430.43 58.039,459.627 65.706,476.443C65.366,476.819 63.602,478.769 61.772,481.422C61.756,480.948 61.595,476.118 61.483,475.503C55.18,440.862 57.476,417.975 54.256,407.526C50.175,394.279 52.848,377.993 53.264,375.46C54.811,366.03 55.152,366.065 54.309,314.498C53.564,268.865 64.674,259.028 62.897,240.466C60.138,211.628 63.839,211.947 72.105,184.274C72.293,184.515 74.383,187.194 74.717,187.071C75.516,186.777 75.556,185.406 76.354,185.112C81.78,177.68 81.381,177.451 85.449,173.474Z" style="fill:rgb(156,164,172);"/>
        <path d="M120.472,67.636C122.401,72.515 122.516,74.117 127.491,72.605C131.902,82.03 135.656,83.055 130.789,86.832C111.541,101.77 103.069,117.942 102.267,113.605C100.1,101.891 89.767,94.526 91.947,91.713C100.882,80.185 117.957,69.247 120.472,67.636Z" style="fill:rgb(240,241,244);"/>
        <path d="M502.653,66.576C498.037,72.981 497.119,65.862 485.448,61.635C450.948,49.14 432.826,72.41 429.848,67.227C422.196,53.914 455.747,45.12 459.481,45.055C498.597,44.367 503.1,64.233 502.653,66.576Z" style="fill:rgb(238,239,243);"/>
        <path d="M137.646,86.528C139.307,82.79 159.292,72.819 161.53,72.124C161.573,72.111 174.001,82.629 186.05,99.783C189.538,104.75 192.752,104.216 190.37,109.719C177.082,98.792 166.928,95.211 144.537,99.067C143.974,98.07 138.995,89.259 137.646,86.528Z" style="fill:rgb(238,239,243);"/>
        <path d="M572.903,740.458C572.951,740.655 583.87,795.45 584.866,810.469C587.498,850.193 568.039,938.382 566.988,953.578C566.753,952.893 565.338,953.185 565.103,952.5C563.588,948.08 566.748,947.708 564.693,943.424C564.546,943.117 564.171,942.95 564.049,942.632C563.62,941.511 563.661,941.672 563.177,940.476C564.873,922.267 575.24,918.137 580.354,832.486C582.61,794.7 576.639,795.167 573.391,757.529C573.2,755.32 572.944,754.928 570.937,755.56C571.234,742.538 570.935,742.578 571.258,741.5C571.444,740.878 572.717,741.08 572.903,740.458Z" style="fill:rgb(162,170,178);"/>
        <path d="M65.706,476.443C69.044,479.909 71.347,484.376 70.618,536.503C69.971,582.733 75.093,597.644 76.135,609.547C76.935,618.686 86.392,671.007 86.502,671.497C84.808,671.528 84.758,671.301 83.654,672.51C81.596,666.43 66.054,583.814 67.057,540.494C68.109,495.107 65.342,495.433 61.772,481.422C63.602,478.769 65.366,476.819 65.706,476.443Z" style="fill:rgb(168,176,183);"/>
        <path d="M358.358,462.497C358.806,463.619 359.794,466.089 358.398,477.602C357.113,478.138 356.88,478 356.9,479.358C357.012,486.79 353.985,501.618 353.571,506.39C356.657,514.812 345.662,515.457 355.664,618.485C355.875,620.659 358.005,642.592 359.476,645.529C359.868,646.312 358.549,646.449 360.316,656.443C360.422,657.043 361.734,656.852 361.84,657.452C361.803,658.132 361.766,658.813 361.729,659.493C362.717,681.671 362.981,681.546 364.602,703.611C363.755,704.557 362.908,705.503 362.061,706.449C360.001,658.729 358.412,658.992 352.721,611.479C343.5,534.49 351.622,514.501 352.776,495.521C353.045,491.11 355.934,467.16 358.358,462.497Z" style="fill:rgb(155,163,172);"/>
        <path d="M132.944,60.626C135.271,56.33 155.797,46.676 156.215,48.616C160.514,68.566 161.343,69.235 159.722,69.807C145.344,74.88 136.581,84.198 135.567,81.426C132.718,73.643 128.513,72.515 134.078,68.057C136.72,65.94 133.293,61.117 132.944,60.626Z" style="fill:rgb(240,241,244);"/>
        <path d="M355.407,505.47C357.904,511.951 355.727,518.158 356.145,546.487C356.573,575.544 357.244,575.342 358.072,604.499C358.829,631.149 360.505,630.86 361.84,657.452C361.734,656.852 360.422,657.043 360.316,656.443C358.549,646.449 359.868,646.312 359.476,645.529C358.005,642.592 355.875,620.659 355.664,618.485C345.662,515.457 356.657,514.812 353.571,506.39C354.183,506.084 354.795,505.777 355.407,505.47Z" style="fill:rgb(233,234,238);"/>
        <path d="M598.524,369.505C601.595,371.56 625.798,450.924 616.177,472.237C615.679,472.528 615.181,472.819 614.682,473.109C614.338,471.308 614.052,471.492 613.993,469.502C613.076,438.585 608.641,426.534 605.87,411.456C598.774,372.851 598.676,372.908 598.524,369.505Z" style="fill:rgb(235,237,240);"/>
        <path d="M574.27,490.449C577.808,490.967 576.339,492.511 577.297,500.541C578.046,506.819 582.959,548.011 579.82,579.535C574.916,628.784 576.677,631.119 572.553,631.487C574.591,601.464 579.714,559.03 574.27,490.449Z" style="fill:rgb(228,230,234);"/>
        <path d="M316.383,473.132C312.934,471.77 313.981,463.035 313.823,453.505C313.803,452.302 313.613,440.815 314.348,438.475C315.302,435.436 318.819,419.104 319.183,417.414C322.167,403.556 338.673,347.879 329.045,392.359C313.07,466.166 319.451,467.355 316.383,473.132Z" style="fill:rgb(233,235,238);"/>
        <path d="M501.212,701.723C505.515,717.513 504.152,724.904 515.278,764.568C552.829,898.431 504.23,737.899 503.524,735.491C502.81,733.055 496.932,713.009 497.164,704.397C497.238,701.611 498.441,702.635 501.212,701.723Z" style="fill:rgb(235,236,240);"/>
        <path d="M415.898,767.41C423.936,746.213 429.497,702.045 432.5,702.47C439.592,703.474 426.405,737.856 419.654,767.591C419.088,770.084 418.148,768.647 415.898,767.41Z" style="fill:rgb(226,228,232);"/>
        <path d="M570.33,232.496C570.579,233.428 572.15,239.324 570.562,244.55C568.315,265.585 559.016,307.277 556.952,310.458C556.712,309.98 557.276,309.992 556.993,309.429C556.878,309.199 556.873,309.223 555.373,306.643C565.693,270.164 566.691,238.708 570.33,232.496Z" style="fill:rgb(165,173,181);"/>
        <path d="M365.429,928.506C370.498,935.65 374.164,970.684 374.204,978.706C372.901,979.078 372.905,978.444 371.673,978.801C371.51,978.821 371.022,979.24 369.793,979.029C368.405,978.791 367.531,946.143 366.83,944.423C363.543,936.353 368.288,934.329 365.241,933.5C362.022,932.624 363.567,931.416 365.429,928.506Z" style="fill:rgb(172,179,186);"/>
        <path d="M742.342,205.61C744.388,206.549 744.469,206.021 746.456,206.899C745.552,209.2 746.021,209.183 747.226,223.538C747.477,226.526 748.24,226.355 753.663,260.459C753.982,262.467 753.931,264.517 754.098,266.543C754.125,266.874 755.393,273.863 755.508,274.499C753.957,274.415 753.223,272.892 753.382,274.384C753.691,277.3 752.871,277.37 752.736,277.633C751.438,273.033 751.384,273.239 751.285,272.852C751.323,272.25 752.448,272.1 752.486,271.498C752.539,270.657 751.266,263.237 751.143,262.522C749.392,252.309 749.591,252.378 749.335,251.523C747.886,246.677 746.695,238.625 746.528,237.493C742.246,208.53 742.258,208.181 742.342,205.61Z" style="fill:rgb(161,169,176);"/>
        <path d="M505.929,77.486C512.555,89.564 520.383,90.661 550.493,99.573C550.109,103.097 550.925,102.962 553.855,104.768L553.798,105.946C552.094,109.197 552.285,109.165 552.123,109.429C550.203,106.909 551.244,105.773 548.089,105.219C547.694,99.204 545.055,101.507 539.387,99.812C514.068,92.239 514.789,90.642 511.488,88.889C510.417,88.321 510.465,88.778 509.445,89.501C507.452,88.279 506.048,88.693 507.153,86.543C507.923,85.044 504.189,80.373 503.818,79.909C504.522,79.101 505.226,78.294 505.929,77.486Z" style="fill:rgb(166,173,181);"/>
        <path d="M510.697,92.414C513.533,93.811 545.072,109.355 548.089,105.219C551.244,105.773 550.203,106.909 552.123,109.429C552.038,110.496 551.565,116.46 549.713,122.594C548.514,118.905 548.278,119.166 546.194,115.48C546.161,114.45 549.532,110.364 542.625,108.167C509.804,97.726 510.536,95.953 509.404,95.202C509.42,94.957 509.538,95.023 510.697,92.414Z" style="fill:rgb(159,167,175);"/>
        <path d="M509.445,89.501C510.465,88.778 510.417,88.321 511.488,88.889C514.789,90.642 514.068,92.239 539.387,99.812C545.055,101.507 547.694,99.204 548.089,105.219C545.072,109.355 513.533,93.811 510.697,92.414C509.833,90.926 509.859,91.124 509.445,89.501Z" style="fill:rgb(231,233,237);"/>
        <path d="M291.232,477.3C315.307,470.823 318.139,477.686 315.175,479.117C311.094,481.089 287.168,484.725 291.232,477.3Z" style="fill:rgb(235,237,240);"/>
        <path d="M619.429,479.965C607.328,476.957 621.763,471.44 639.613,477.398C641.902,478.162 640.346,484.911 619.429,479.965Z" style="fill:rgb(236,237,241);"/>
        <path d="M491.327,645.879L492.868,645.645C494.823,654.967 498.174,692.673 501.363,697.426L500.669,698.587C500.495,698.653 498.487,699.413 498.487,699.413C495.35,701.069 496.992,697.559 492.156,655.531C492.068,654.761 492.095,654.816 491.327,645.879Z" style="fill:rgb(221,223,227);"/>
        <path d="M568.46,680.509C567.677,714.071 569.572,716.906 567.156,721.556C566.659,718.308 562.184,689.033 568.46,680.509Z" style="fill:rgb(207,211,216);"/>
        <path d="M361.729,659.493C365.19,661.71 364.461,686.302 367.273,695.422C367.099,696.06 367.225,696.071 365.303,703.451L364.602,703.611C362.981,681.546 362.717,681.671 361.729,659.493Z" style="fill:rgb(212,215,220);"/>
        <path d="M513.536,178.012C523.012,181.97 521.83,183.906 521.219,184.424C505.587,197.684 512.649,179.65 513.536,178.012Z" style="fill:rgb(232,234,238);"/>
        <path d="M365.155,708.402C365.922,709.872 367.054,709.367 366.748,711.457C366.354,714.143 365.719,716.792 365.374,719.485C364.044,729.87 363.874,729.682 363.763,730.572C360.467,756.983 361.097,723.087 365.155,708.402Z" style="fill:rgb(196,201,206);"/>
        <path d="M358.398,477.602C359.374,494.386 356.163,503.359 355.407,505.47C354.795,505.777 354.183,506.084 353.571,506.39C353.985,501.618 357.012,486.79 356.9,479.358C356.88,478 357.113,478.138 358.398,477.602Z" style="fill:rgb(219,222,226);"/>
        <path d="M137.646,86.528C138.995,89.259 143.974,98.07 144.537,99.067L141.522,100.519C138.402,94.134 138.127,94.529 134.493,88.537C135.544,87.867 136.595,87.198 137.646,86.528Z" style="fill:rgb(171,178,185);"/>
        <path d="M563.368,955.532C563.39,967.09 563.421,966.925 563.262,978.391C562.637,978.803 562.012,979.216 561.387,979.628C560.155,973.915 561.502,957.61 563.368,955.532Z" style="fill:rgb(217,220,225);"/>
        <path d="M151.482,103.186C153.314,101.445 152.753,100.553 155.527,100.606C161.044,100.713 161.515,99.457 165.517,103.195C160.838,103.192 156.16,103.189 151.482,103.186Z" style="fill:rgb(164,172,180);"/>
        <path d="M122.396,66.442C124.12,68.456 124.046,68.342 126.023,70.047C126.361,71.631 126.146,71.663 127.491,72.605C122.516,74.117 122.401,72.515 120.472,67.636C121.113,67.238 121.755,66.84 122.396,66.442Z" style="fill:rgb(156,164,172);"/>
        <path d="M509.54,177.462C509.433,178.666 509.327,179.87 509.22,181.074C508.667,181.267 508.972,181.422 508.536,181.573C508.397,181.622 508.536,181.573 506.769,182.07C505.207,180.668 503.141,171.843 509.54,177.462Z" style="fill:rgb(226,228,232);"/>
        <path d="M125.508,64.212C127.834,68.938 126.759,69.064 126.023,70.047C124.046,68.342 124.12,68.456 122.396,66.442C123.776,64.942 123.794,65.195 125.508,64.212Z" style="fill:rgb(217,220,224);"/>
        <path d="M130.493,61.567C130.61,61.844 132.79,71.166 127.187,63.36C128.625,61.868 128.485,61.817 130.493,61.567Z" style="fill:rgb(214,217,221);"/>
        <path d="M550.493,99.573C552.729,100.796 552.436,100.888 554.216,102.662C554.096,103.364 553.975,104.066 553.855,104.768C550.925,102.962 550.109,103.097 550.493,99.573Z" style="fill:rgb(109,122,132);"/>
        <path d="M499.841,77.708C499.836,77.401 499.659,64.53 502.15,74.64C502.51,76.101 501.901,84.39 499.841,77.708Z" style="fill:rgb(178,185,192);"/>
        <path d="M103.218,150.472C105.404,153.519 105.347,153.528 105.764,153.896L103.638,155.611C103.021,154.764 99.489,153.853 103.218,150.472Z" style="fill:rgb(159,167,174);"/>
        <path d="M460.166,196.591C460.691,194.567 460.462,193.764 462.57,194.343C463.948,194.722 464.31,200.707 460.166,196.591Z" style="fill:rgb(141,151,160);"/>
        <path d="M469.14,196.623C469.579,194.897 469.018,194.46 470.445,194.249C473.514,193.795 471.739,199.099 469.14,196.623Z" style="fill:rgb(150,159,167);"/>
        <path d="M142.779,899.725C143.44,896.671 143.282,896.597 143.492,896.427C145.312,894.961 143.809,897.35 144.539,899.481C143.952,899.563 143.366,899.644 142.779,899.725Z" style="fill:rgb(161,169,177);"/>
        <path d="M360.54,744.542C360.5,742.514 360.371,742.612 360.5,742.514C361.682,741.618 360.841,743.024 361.741,744.369L360.54,744.542Z" style="fill:rgb(145,155,163);"/>
        <path d="M563.262,978.391C562.637,978.803 562.012,979.216 561.387,979.628C562.012,979.216 562.637,978.803 563.262,978.391Z" style="fill:rgb(188,193,199);"/>
        <path d="M569.187,737.684C569.595,739.044 570.8,739.973 569.649,739.225C568.863,738.713 569.973,738.195 569.187,737.684Z" style="fill:rgb(158,165,173);"/>
        <path d="M181.678,360.129C181.636,360.916 181.594,361.702 181.552,362.488L181.678,360.129Z" style="fill:rgb(194,198,204);"/>
        <path d="M505.025,193.64C504.968,194.046 504.91,194.452 504.853,194.857L505.025,193.64Z" style="fill:rgb(201,205,210);"/>
        <path d="M747.368,359.208C747.313,359.938 747.258,360.669 747.204,361.399C747.258,360.669 747.313,359.938 747.368,359.208Z" style="fill:rgb(182,188,194);"/>
    </g>
</svg>
